<?xml version="1.0" encoding="utf-8"?>
<!-- Generator: Adobe Illustrator 25.3.1, SVG Export Plug-In . SVG Version: 6.00 Build 0)  -->
<svg version="1.1" id="图层_1" xmlns="http://www.w3.org/2000/svg" xmlns:xlink="http://www.w3.org/1999/xlink" x="0px" y="0px"
	 viewBox="0 0 20 20" style="enable-background:new 0 0 20 20;" xml:space="preserve">
<style type="text/css">
	.st0{fill-rule:evenodd;clip-rule:evenodd;fill:#0FD05D;fill-opacity:0;}
	.st1{fill:#0FD05D;}
</style>
<g id="关于我们">
	<g id="关于我们-联系" transform="translate(-300.000000, -1329.000000)">
		<g id="编组-6备份-2" transform="translate(269.000000, 1261.000000)">
			<g id="编组备份-2" transform="translate(31.000000, 30.000000)">
				<g id="编组-5" transform="translate(0.000000, 38.000000)">
					<rect id="矩形" x="0.5" y="0.5" class="st0" width="19" height="19"/>
					<g id="_x23_-_x2F_-关于我们-_x2F_-Icon" transform="translate(1.000000, 3.000000)">
						<path id="形状" class="st1" d="M11.5,4.2c0.2,0,0.4,0,0.6,0C11.6,1.8,9,0,6,0C2.7,0,0,2.3,0,5.2c0,1.7,0.9,3,2.4,4.1
							l-0.6,1.8L3.9,10c0.8,0.2,1.4,0.3,2.1,0.3c0.2,0,0.4,0,0.6,0C6.5,9.9,6.4,9.5,6.4,9.1C6.4,6.4,8.6,4.2,11.5,4.2z M8.3,2.6
							C8.7,2.6,9,2.9,9,3.3c0,0.5-0.3,0.8-0.8,0.8c-0.5,0-0.9-0.3-0.9-0.8C7.4,2.9,7.8,2.6,8.3,2.6z M4.1,4.1
							c-0.5,0-0.9-0.3-0.9-0.8c0-0.5,0.5-0.8,0.9-0.8c0.5,0,0.8,0.3,0.8,0.8C4.8,3.8,4.5,4.1,4.1,4.1z M17,9c0-2.4-2.4-4.4-5.1-4.4
							C9,4.6,6.8,6.5,6.8,9c0,2.4,2.3,4.4,5.1,4.4c0.6,0,1.2-0.2,1.8-0.3l1.7,0.9l-0.5-1.5C16.1,11.6,17,10.3,17,9L17,9z M10.2,8.2
							c-0.3,0-0.6-0.3-0.6-0.6C9.6,7.3,9.9,7,10.2,7C10.7,7,11,7.3,11,7.6C11,7.9,10.7,8.2,10.2,8.2z M13.5,8.2
							c-0.3,0-0.6-0.3-0.6-0.6c0-0.3,0.3-0.6,0.6-0.6c0.5,0,0.8,0.3,0.8,0.6C14.3,7.9,14,8.2,13.5,8.2z"/>
					</g>
				</g>
			</g>
		</g>
	</g>
</g>
</svg>
